PathFileType	4	(X/Y/Z)	D:\TRACE\v60_Jaco2_6-2-23\JustBodyDRS_Motion3_4-platform.trc
DataRate	CameraRate	NumFrames	NumMarkers	Units	OrigDataRate	OrigDataStartFrame	OrigNumFrames
100.00	100.00	      55	5	mm	100.00	5251	      7000
Frame#	Time	Left_Front			Right_Front			Left_Aft			Right_Aft			Post			
		X1	Y1	Z1	X2	Y2	Z2	X3	Y3	Z3	X4	Y4	Z4	X5	Y5	Z5	

5251	52.500	-794.45465	6.00379	-651.96222	775.77661	4.20938	-629.05524	-726.11420	13.55862	481.95950	688.12115	11.44339	588.01007	1.01742	1302.00818	-972.19458	
5252	52.510	-794.60364	5.77496	-652.10602	775.75159	4.05936	-629.07092	-726.31024	13.57740	481.92337	688.02112	11.48137	588.00708	1.06509	1301.84668	-972.17828	
5253	52.520	-794.69678	5.63572	-652.19226	775.72925	3.99316	-629.07684	-726.31140	13.61616	481.94577	687.97632	11.71849	588.00201	1.11847	1301.71631	-972.15308	
5254	52.530	-794.68201	5.65429	-652.14178	775.79199	3.98351	-629.07697	-726.22375	13.79414	481.91006	688.01367	11.85234	588.01398	1.11654	1301.56531	-972.20380	
5255	52.540	-794.66095	5.68384	-652.07904	775.87469	3.83411	-629.11560	-726.09564	13.91619	481.84753	688.06598	12.03866	587.89722	1.13494	1301.39270	-972.33820	
5256	52.550	-794.60876	5.71567	-652.13025	775.95813	3.63227	-629.12286	-726.03363	14.02321	481.83624	688.19049	12.13521	587.62451	1.35865	1301.06604	-972.59259	
5257	52.560	-794.71747	5.43865	-652.22864	775.83661	3.36261	-629.18500	-726.12097	14.09896	481.79822	688.13623	12.33908	587.53186	1.29755	1300.54675	-973.02808	
5258	52.570	-794.73419	5.22696	-652.26233	775.83881	3.16525	-629.16687	-725.96210	14.18609	481.80740	688.22693	12.50811	587.54224	1.47546	1300.23767	-973.41278	
5259	52.580	-794.67053	5.04865	-652.28424	775.85278	2.94765	-629.22534	-725.92310	14.36572	481.90924	688.32831	12.70628	587.54150	1.47569	1300.11218	-974.11340	
5260	52.590	-794.62476	4.73140	-652.36609	776.26538	2.69417	-629.65210	-725.92944	14.60595	481.88892	688.46887	12.95451	587.51788	1.51901	1299.95313	-974.78394	
5261	52.600	-794.60248	4.44622	-652.44049	776.41754	2.56354	-629.71179	-725.91522	14.79019	481.79501	688.50488	13.15956	587.52576	1.25081	1299.71545	-975.69080	
5262	52.610	-794.55383	4.02682	-652.45605	776.09406	2.51370	-629.41895	-725.93774	14.93361	481.67804	688.49945	13.37249	587.42798	1.42069	1299.41016	-976.28400	
5263	52.620	-794.53961	3.88884	-652.49713	776.10431	2.29221	-629.50830	-726.01904	15.06195	481.69513	688.47827	13.45277	587.35803	1.33362	1298.93689	-976.78296	
5264	52.630	-794.56323	3.81025	-652.54755	776.03577	2.00431	-629.51910	-725.92548	15.11884	481.62201	688.61414	13.61848	587.37189	1.66154	1298.44604	-977.31006	
5265	52.640	-794.22284	3.40478	-652.09058	776.06812	1.83616	-629.52740	-726.11847	15.70001	481.13516	688.66821	13.79229	587.32806	1.67239	1298.05188	-977.83154	
5266	52.650	-794.12982	3.20049	-652.04419	776.17157	1.63307	-629.57990	-725.68958	15.35859	481.57367	688.66357	13.98657	587.16943	1.72938	1297.73535	-978.21875	
5267	52.660	-794.11395	3.07082	-652.08679	776.16547	1.22735	-629.65802	-725.67615	15.52187	481.53467	688.72461	14.13059	587.08551	1.58891	1297.45422	-978.63416	
5268	52.670	-794.54657	2.83304	-652.51868	776.15900	0.84674	-629.75555	-725.61884	15.65418	481.41318	688.71136	14.24244	587.03528	1.60222	1297.07251	-978.99628	
5269	52.680	-794.50977	2.66281	-652.60596	776.11926	0.46649	-629.78345	-725.53802	15.68152	481.45383	688.61926	14.46045	586.86371	1.78384	1296.51111	-979.33588	
5270	52.690	-794.42090	2.29837	-652.74268	776.35059	0.11202	-629.80194	-725.61835	15.92718	481.38669	688.68896	14.80546	586.75549	1.90594	1295.82959	-979.82672	
5271	52.700	-794.39966	1.93659	-652.96442	776.48364	-0.19589	-629.94238	-725.50354	16.26671	481.19482	688.89801	15.34235	586.67670	2.02883	1295.40369	-980.44104	
5272	52.710	-794.44739	1.72627	-653.03998	776.52490	-0.44694	-630.00592	-725.36096	16.61055	481.09595	689.01202	15.71765	586.51929	2.14629	1295.09265	-981.20331	
5273	52.720	-794.28149	1.37002	-653.31152	776.58350	-0.75065	-630.08325	-725.36652	16.87279	480.92014	689.04889	15.89672	586.47925	2.09278	1294.53845	-982.27130	
5274	52.730	-794.11383	0.73458	-653.42969	776.61102	-1.06102	-630.25122	-725.43677	17.25497	480.76297	689.02661	15.99801	586.43225	1.98358	1293.60962	-983.10748	
5275	52.740	-793.91296	0.42047	-653.19977	776.59546	-1.56741	-630.34351	-725.47150	17.51984	480.58405	689.13947	16.26348	586.54181	2.35982	1293.33484	-984.30725	
5276	52.750	-794.03705	0.00237	-653.36932	776.73175	-1.86035	-630.37897	-725.32428	17.76392	480.59467	688.98547	16.57575	586.80023	2.44597	1292.78101	-985.43298	
5277	52.760	-793.95886	-0.33619	-653.56744	776.84113	-2.05027	-630.45099	-725.12158	18.02109	480.52304	689.39178	16.83109	586.44788	2.35037	1292.15161	-986.61401	
5278	52.770	-793.76599	-0.73429	-653.72589	777.00641	-2.31578	-630.52618	-724.94641	18.14817	480.47977	689.43353	17.38251	586.12836	2.59115	1291.75452	-987.41650	
5279	52.780	-793.57166	-1.25562	-653.62219	777.17230	-2.71907	-630.53369	-724.88062	18.38745	480.46863	689.59235	17.66377	586.02557	2.59029	1291.21057	-988.10089	
5280	52.790	-793.29938	-1.62651	-653.61884	777.16803	-3.41648	-630.69403	-724.68762	18.62935	480.30762	689.73010	17.80995	586.01770	2.58422	1290.30835	-988.88312	
5281	52.800	-793.13806	-2.24052	-653.69519	777.19354	-3.88652	-630.83899	-724.57428	18.88194	480.18274	689.77582	18.17197	585.84802	2.81320	1289.57446	-989.51154	
5282	52.810	-793.14545	-2.57156	-653.83923	777.44403	-4.29189	-630.95593	-724.42450	19.20663	480.07617	689.95544	18.63702	585.60797	2.93247	1288.97375	-990.26605	
5283	52.820	-793.09277	-2.98054	-653.90503	777.63422	-4.71384	-631.06525	-724.36224	19.68443	479.94772	690.01648	19.01748	585.54254	3.10179	1288.34473	-991.11389	
5284	52.830	-792.89417	-3.67066	-653.93884	777.78748	-5.17648	-631.13104	-724.29456	20.04868	479.89273	690.00958	19.31467	585.49036	3.66494	1287.57214	-991.80060	
5285	52.840	-792.63208	-4.44082	-653.88849	777.86987	-5.76625	-631.22388	-724.13794	20.33269	479.76871	690.32196	19.87674	585.39197	3.81065	1286.87500	-992.79895	
5286	52.850	-792.81433	-4.99481	-654.21088	777.90320	-6.22740	-631.31812	-723.98950	20.56669	479.59943	690.41992	20.35338	585.32166	3.75593	1286.10242	-994.01624	
5287	52.860	-792.50293	-5.17938	-654.16602	778.10107	-6.66370	-631.49384	-723.76270	20.87251	479.47455	690.71509	20.77823	585.03284	3.96341	1285.21777	-995.37799	
5288	52.870	-792.36963	-5.42390	-654.37317	778.37134	-7.20588	-631.55420	-723.54810	21.21279	479.41122	690.83801	21.10219	584.97266	4.16860	1284.58960	-996.65100	
5289	52.880	-792.29694	-5.64155	-654.48206	778.55829	-7.49883	-631.60742	-723.41962	21.40795	479.38239	690.87152	21.26933	584.86755	4.10500	1283.98926	-998.29395	
5290	52.890	-792.14044	-6.06277	-654.72772	778.75116	-7.93518	-631.69556	-723.24347	21.74918	479.28564	691.09137	21.39865	584.80969	4.31379	1283.43750	-999.49591	
5291	52.900	-792.04395	-6.58967	-654.93481	778.72870	-8.39008	-631.92157	-723.09186	22.13848	479.19150	691.20917	21.42534	584.37842	4.46749	1282.44250	-1000.56311	
5292	52.910	-791.86127	-7.36647	-654.81366	778.89441	-8.92590	-631.97314	-722.98297	22.58719	479.04440	691.76324	22.41156	584.45197	4.47708	1281.69067	-1001.68018	
5293	52.920	-791.54175	-7.85513	-654.85626	779.22113	-9.44838	-632.04968	-722.82623	22.91657	478.91010	691.91205	22.90416	584.20715	4.82196	1281.05005	-1002.50214	
5294	52.930	-791.23853	-8.27652	-654.94873	779.47766	-9.90699	-632.02551	-722.60577	23.26609	478.63815	692.22791	23.37132	584.12463	5.18669	1280.09192	-1003.08014	
5295	52.940	-790.91650	-8.84648	-655.18256	779.65137	-10.36823	-632.11121	-722.31238	23.51725	478.61023	692.40961	23.67435	584.03125	5.45252	1279.38623	-1003.84814	
5296	52.950	-790.66052	-9.51301	-655.51611	780.05280	-11.33412	-632.71594	-722.04144	23.86713	478.44592	692.42627	24.02524	583.86646	5.70723	1278.74915	-1004.70355	
5297	52.960	-790.54315	-10.09359	-655.55865	780.00281	-11.59928	-632.31512	-721.90112	24.19601	478.25146	692.70569	24.58198	583.71515	5.80016	1277.66321	-1005.60724	
5298	52.970	-790.66095	-10.55906	-655.40265	780.07086	-12.13393	-632.55029	-721.73322	24.58308	478.06555	693.05737	25.00809	583.55792	5.98807	1276.90564	-1006.86298	
5299	52.980	-790.18506	-10.93654	-655.36780	780.32019	-12.71828	-632.60590	-721.50720	25.00330	477.87067	693.48242	25.42889	583.48901	6.17798	1276.20972	-1007.85114	
5300	52.990	-789.91284	-11.44656	-655.46771	780.70404	-13.17216	-632.78381	-721.28699	25.40653	477.68222	693.54749	25.70779	583.38617	6.80344	1275.36218	-1008.97632	
5301	53.000	-789.64404	-12.18641	-655.62262	781.00934	-13.50418	-632.91132	-720.95135	25.84663	477.52203	693.65955	26.08320	583.19092	6.86050	1274.75354	-1010.59515	
5302	53.010	-789.66400	-12.66263	-655.71454	781.30103	-14.09742	-632.97052	-720.74139	26.09578	477.48669	693.99622	26.64347	583.01276	7.07873	1273.94995	-1012.04388	
5303	53.020	-789.33868	-13.28340	-655.95905	781.50031	-14.63473	-633.08234	-720.59656	26.27593	477.44138	694.27673	27.06591	582.94092	7.66716	1273.11389	-1013.31427	
5304	53.030	-789.11798	-13.81368	-656.28528	781.80664	-15.21105	-633.19208	-720.35547	26.54808	477.30469	694.57825	27.38582	582.95380	7.35374	1272.14014	-1014.68085	
5305	53.040	-788.41333	-14.15608	-656.16681	782.11810	-15.70111	-633.29987	-719.98340	26.88684	477.16556	694.80243	27.78374	582.83228	7.62671	1271.38306	-1015.74127	
